<?xml version="1.0" encoding="utf-8"?>
<!-- Generator: Adobe Illustrator 22.1.0, SVG Export Plug-In . SVG Version: 6.00 Build 0)  -->
<svg version="1.1" id="Layer_1" xmlns="http://www.w3.org/2000/svg" xmlns:xlink="http://www.w3.org/1999/xlink" x="0px" y="0px"
	 viewBox="0 0 120 120" style="enable-background:new 0 0 120 120;" xml:space="preserve">
<style type="text/css">
	.st0{fill:#29ABE2;}
	.st1{fill:none;stroke:#4468B0;stroke-width:1.2755;stroke-miterlimit:10;}
</style>
<rect x="230.2" y="4.8" class="st0" width="110.3" height="110.3"/>
<path class="st1" d="M95.8,26.5V16.3c0-2.3-0.6-4.5-2-6.4c-1.7-2.4-4.7-5.1-9.5-5.1H37.1c-3.3,0-10.2,3.7-10.2,11v31"/>
<path class="st1" d="M109.2,49.1c0-1.3-1-2.2-2.3-2.2h-90c0,0-2.7,0-2.7,3.8s0,61.9,0,61.9s0,2.6,2.7,2.6h89.9c1.4,0,2.4-1,2.4-2.4
	C109.2,112.8,109.2,49.1,109.2,49.1z"/>
<circle class="st1" cx="61.4" cy="72.4" r="12.8"/>
<path class="st1" d="M55,83.5v12.6c0,0.4,0.1,0.6,0.4,0.9c1.1,1.1,5,4.7,6,4.7s4.7-3.6,6-4.7c0.3-0.3,0.4-0.6,0.4-0.9V83.5
	c0,0-3.8,1.7-6.4,1.7C58.8,85.2,55,83.5,55,83.5z"/>
</svg>
