<?xml version="1.0" encoding="utf-8"?>
<!-- Generator: Adobe Illustrator 22.0.1, SVG Export Plug-In . SVG Version: 6.00 Build 0)  -->
<svg version="1.1" id="Layer_1" xmlns="http://www.w3.org/2000/svg" xmlns:xlink="http://www.w3.org/1999/xlink" x="0px" y="0px"
	 viewBox="0 0 120 120" style="enable-background:new 0 0 120 120;" xml:space="preserve">
<style type="text/css">
	.st0{fill:#29ABE2;}
	.st1{fill:none;stroke:#4468B0;stroke-width:1.087;stroke-miterlimit:10;}
</style>
<rect x="139.8" y="7.6" class="st0" width="110.3" height="110.3"/>
<path class="st1" d="M104.2,94.8H16.3c-11.2,0-11.2-5-11.2-11.2V35.9c0-11.2,5-11.2,11.2-11.2h87.8c6.2,0,11.2-1,11.2,11.2v47.7
	C115.4,89.8,116.3,94.8,104.2,94.8z"/>
<line class="st1" x1="5.1" y1="37.6" x2="115.4" y2="37.6"/>
<line class="st1" x1="5.1" y1="53.1" x2="115.4" y2="53.1"/>
<path class="st1" d="M88.7,62.7"/>
<g>
	<path class="st1" d="M87.8,63.3c-1.8-1.1-3.8-1.8-6.1-1.8c-6.2,0-11.3,5.1-11.3,11.3c0,6.2,5.1,11.3,11.3,11.3
		c2.2,0,4.3-0.7,6.1-1.8"/>
	<path class="st1" d="M93.9,61.5c-2.2,0-4.3,0.7-6.1,1.8c3.1,2,5.2,5.5,5.2,9.5c0,4-2.1,7.5-5.2,9.5c1.8,1.1,3.8,1.8,6.1,1.8
		c6.2,0,11.3-5.1,11.3-11.3C105.2,66.6,100.1,61.5,93.9,61.5z"/>
</g>
</svg>
