<?xml version="1.0" encoding="utf-8"?>
<!-- Generator: Adobe Illustrator 22.0.1, SVG Export Plug-In . SVG Version: 6.00 Build 0)  -->
<svg version="1.1" xmlns="http://www.w3.org/2000/svg" xmlns:xlink="http://www.w3.org/1999/xlink" x="0px" y="0px"
	 viewBox="0 0 803 505.6" style="enable-background:new 0 0 803 505.6;" xml:space="preserve">
<style type="text/css">
	.st0{fill:#FFFFFF;}
	.st1{fill:#6D7A8F;}
	.st2{fill:none;stroke:#FFFFFF;stroke-width:0.75;stroke-miterlimit:10;}
	.st3{fill:#EEEEEE;}
	.st4{fill:#50AE54;}
	.st5{fill:#FEEA9E;}
	.st6{fill:#F5F7F9;}
	.st7{fill:#757575;}
	.st8{fill:none;stroke:#757575;stroke-width:0.4539;stroke-miterlimit:10;}
	.st9{fill:none;stroke:#757575;stroke-width:1.2798;stroke-miterlimit:10;}
	.st10{fill:#757575;stroke:#757575;stroke-width:1.219520e-02;stroke-miterlimit:10;}
	.st11{fill:#4D4D4D;}
	.st12{fill:#4669AE;}
	.st13{fill:#EEEEEE;stroke:#CCCCCC;stroke-width:0.5;stroke-miterlimit:10;}
	.st14{fill:#FFFFFF;stroke:#CCCCCC;stroke-width:0.5;stroke-miterlimit:10;}
	.st15{fill:#FFFFFF;stroke:#E0E0E0;stroke-width:0.4999;stroke-miterlimit:10;}
	.st16{fill:#FFFFFF;stroke:#E0E0E0;stroke-width:0.5;stroke-miterlimit:10;}
	.st17{fill:none;stroke:#CCCCCC;stroke-width:0.5;stroke-miterlimit:10;}
	.st18{font-family:'OpenSans-Regular';}
	.st19{font-size:7.1398px;}
	.st20{fill:#666666;}
	.st21{font-size:6.832px;}
	.st22{font-size:11.2455px;}
	.st23{fill:#808080;}
	.st24{font-family:'OpenSans-Bold';}
	.st25{font-size:7px;}
	.st26{font-size:6.3928px;}
	.st27{font-size:14.8743px;}
</style>
<g id="Layer_3">
	
		<image style="overflow:visible;" width="1554" height="838" xlink:href="../../../../Screen Shot 2018-03-12 at 11.13.49 AM.png"  transform="matrix(0.4913 0 0 0.4913 1 99)">
	</image>
</g>
<g id="Layer_4">
	<rect x="106.8" y="122.6" class="st0" width="665.2" height="383.8"/>
	<path class="st1" d="M124.5,139.8h-8.1c-0.7,0-1.3-0.6-1.3-1.3v-7.3c0-0.7,0.6-1.3,1.3-1.3h8.1c0.7,0,1.3,0.6,1.3,1.3v7.3
		C125.8,139.2,125.2,139.8,124.5,139.8z"/>
	<path class="st2" d="M117.8,134.1c0,0,1.7-3.4,4.8-0.8"/>
	<polygon class="st0" points="123.7,134.3 123.2,132 121.4,134.2 	"/>
	<path class="st2" d="M123.1,135.6c0,0-1.7,3.4-4.8,0.8"/>
	<polygon class="st0" points="117.2,135.3 117.7,137.6 119.6,135.4 	"/>
	<rect x="447.2" y="234" class="st0" width="62.3" height="12.5"/>
	<rect x="447.2" y="263.7" class="st0" width="19.5" height="12.5"/>
	<rect x="447.2" y="310.5" class="st0" width="33.9" height="12.5"/>
	<rect x="447.2" y="334.8" class="st3" width="33.9" height="10.7"/>
	<path class="st4" d="M499.1,426.5H379.8c-1.3,0-2.4-1.1-2.4-2.4v-13.9c0-1.3,1.1-2.4,2.4-2.4h119.3c1.3,0,2.4,1.1,2.4,2.4v13.9
		C501.5,425.5,500.4,426.5,499.1,426.5z"/>
	<rect x="114.3" y="153.6" class="st5" width="550.3" height="19.7"/>
	<rect x="131.7" y="128.8" class="st0" width="62.3" height="12.5"/>
	<rect x="1" y="126.5" class="st6" width="57.5" height="17"/>
	<rect x="17.5" y="151" class="st6" width="57.5" height="119"/>
	<rect x="29.8" y="267.5" class="st6" width="57.5" height="52"/>
	<rect x="17.5" y="319.5" class="st6" width="57.5" height="52"/>
	<rect y="121.8" class="st6" width="108.4" height="383.8"/>
	<circle class="st7" cx="10.4" cy="157.8" r="3.1"/>
	<g>
		<g>
			<path class="st7" d="M9.9,198.9c0.2-0.1,0.4-0.3,0.5-0.4l0.6,0.3l0.5-0.9l-0.6-0.3c0.1-0.2,0.1-0.4,0.1-0.7l0.6-0.1l-0.2-1
				l-0.6,0.1c-0.1-0.2-0.2-0.4-0.3-0.6l0.4-0.5l-0.8-0.7l-0.4,0.5c-0.2-0.1-0.4-0.2-0.7-0.2v-0.6h-1v0.6c-0.2,0-0.4,0.1-0.7,0.2
				l-0.4-0.5l-0.8,0.7l0.4,0.5c-0.1,0.2-0.3,0.4-0.3,0.6l-0.6-0.1l-0.2,1l0.6,0.1c0,0.2,0,0.5,0.1,0.7l-0.6,0.3l0.5,0.9l0.6-0.3
				c0.2,0.2,0.3,0.3,0.5,0.4l-0.2,0.6l1,0.3l0.2-0.6c0.1,0,0.2,0,0.3,0c0.1,0,0.2,0,0.3,0l0.2,0.6l1-0.3L9.9,198.9z M8.6,198.1
				c-0.7,0-1.3-0.6-1.3-1.3c0-0.7,0.6-1.3,1.3-1.3c0.7,0,1.3,0.6,1.3,1.3C9.9,197.6,9.4,198.1,8.6,198.1z"/>
			<path class="st7" d="M14.3,199.7l-0.4,0.1c-0.1-0.1-0.2-0.3-0.3-0.4l0.2-0.4l-0.6-0.4l-0.2,0.4c-0.2-0.1-0.3-0.1-0.5-0.1
				l-0.1-0.5l-0.7,0.1l0.1,0.5c-0.2,0.1-0.3,0.1-0.4,0.2L11,199l-0.5,0.5l0.3,0.3c-0.1,0.1-0.1,0.3-0.2,0.5l-0.5,0l0,0.7l0.5,0
				c0,0.2,0.1,0.3,0.2,0.5l-0.4,0.3l0.4,0.6l0.4-0.3c0.1,0.1,0.3,0.2,0.4,0.3l-0.1,0.5l0.7,0.2l0.1-0.5c0.1,0,0.2,0,0.2,0
				c0.1,0,0.2,0,0.2-0.1l0.2,0.4l0.6-0.3l-0.2-0.4c0.1-0.1,0.2-0.2,0.3-0.4l0.4,0.2l0.3-0.7l-0.4-0.2c0-0.2,0-0.3,0-0.5l0.4-0.1
				L14.3,199.7z M12.5,201.6c-0.5,0.1-1-0.3-1-0.8c-0.1-0.5,0.3-1,0.8-1c0.5-0.1,1,0.3,1,0.8C13.3,201.1,13,201.6,12.5,201.6z"/>
			<path class="st7" d="M15.3,197.2l0-0.6l-0.4,0c0-0.1-0.1-0.3-0.1-0.4l0.3-0.2l-0.4-0.5l-0.3,0.2c-0.1-0.1-0.2-0.2-0.3-0.2
				l0.1-0.4l-0.6-0.1l-0.1,0.4c-0.1,0-0.3,0-0.4,0.1l-0.2-0.3l-0.5,0.3l0.2,0.3c-0.1,0.1-0.2,0.2-0.3,0.3l-0.3-0.1l-0.2,0.5l0.3,0.1
				c0,0.1,0,0.3,0,0.4l-0.3,0.1l0.2,0.5l0.3-0.1c0.1,0.1,0.1,0.2,0.2,0.3l-0.2,0.3l0.5,0.3l0.2-0.3c0.1,0,0.3,0.1,0.4,0.1l0.1,0.4
				l0.6-0.1l-0.1-0.4c0.1,0,0.1,0,0.2-0.1c0.1,0,0.1-0.1,0.2-0.1l0.3,0.2l0.4-0.4l-0.3-0.2c0.1-0.1,0.1-0.2,0.1-0.4L15.3,197.2z
				 M13.9,197.5c-0.4,0.2-0.8,0.1-1-0.3c-0.2-0.4-0.1-0.8,0.3-1c0.4-0.2,0.8-0.1,1,0.3C14.4,196.8,14.3,197.3,13.9,197.5z"/>
		</g>
	</g>
	<g>
		<path class="st7" d="M12.5,220.4c-0.1-0.2-0.3-0.4-0.5-0.5c-0.1-0.1-0.3-0.2-0.6-0.2c0.2-0.1,0.4-0.2,0.6-0.3
			c0.2-0.1,0.3-0.3,0.3-0.4c0.1-0.2,0.1-0.3,0.1-0.5c0-0.3-0.1-0.5-0.2-0.7c-0.2-0.2-0.4-0.4-0.7-0.5c-0.2-0.1-0.4-0.1-0.6-0.1v-1
			h-0.8v0.9H9.6V216H8.8v0.9H7.1v0.8h0.2c0.1,0,0.3,0,0.3,0c0.1,0,0.1,0.1,0.1,0.1c0,0,0,0.2,0,0.3v3.2c0,0.2,0,0.3,0,0.3
			c0,0-0.1,0.1-0.1,0.1c-0.1,0-0.2,0-0.3,0H7.1v0.8h1.7v0.9h0.8v-0.9h0.5c0,0,0,0,0,0v0.9h0.8v-1c0.3,0,0.5-0.1,0.6-0.2
			c0.3-0.1,0.6-0.3,0.8-0.6c0.2-0.3,0.3-0.5,0.3-0.8C12.6,220.8,12.6,220.6,12.5,220.4z M9.2,217.9h0.6c0.4,0,0.6,0,0.8,0.1
			s0.3,0.1,0.3,0.2c0.1,0.1,0.1,0.2,0.1,0.4c0,0.1,0,0.3-0.1,0.4c-0.1,0.1-0.2,0.2-0.4,0.2c-0.2,0.1-0.4,0.1-0.7,0.1H9.2L9.2,217.9
			L9.2,217.9z M11,221.4c-0.1,0.1-0.2,0.2-0.4,0.3c-0.2,0-0.4,0.1-0.6,0.1H9.6c-0.1,0-0.2,0-0.3,0c0,0-0.1,0-0.1-0.1
			c0,0,0-0.1,0-0.3v-1.2H10c0.3,0,0.6,0,0.7,0.1c0.2,0.1,0.3,0.1,0.4,0.3c0.1,0.1,0.1,0.3,0.1,0.4C11.2,221.1,11.1,221.3,11,221.4z"
			/>
	</g>
	<g>
		<g>
			<path class="st7" d="M13.4,238.2H6.5c-0.1,0-0.2,0.1-0.2,0.2v4.2c0,0.1,0.1,0.2,0.2,0.2h6.9c0.1,0,0.2-0.1,0.2-0.2v-4.2
				C13.5,238.3,13.5,238.2,13.4,238.2z M8.8,241.7c-0.3,0.3-0.7,0-0.7-0.3c0,0.3-0.4,0.6-0.7,0.3c-0.3-0.3,0-0.7,0.3-0.7
				c0.2,0,0.4,0.2,0.4,0.4c0-0.2,0.2-0.4,0.4-0.4C8.8,241,9,241.4,8.8,241.7z M13.5,239.7H6.3v-0.4h7.2V239.7z"/>
		</g>
	</g>
	<g>
		<g>
			<path class="st7" d="M13.3,258.4H6.6c-0.1,0-0.2,0.1-0.2,0.2v4c0,0.1,0.1,0.2,0.2,0.2h6.7c0.1,0,0.2-0.1,0.2-0.2v-4
				C13.5,258.5,13.4,258.4,13.3,258.4z M13.1,259.9v2.5H6.8v-2.5H13.1z M13.1,259.5H6.8v-0.7h6.3V259.5z"/>
		</g>
	</g>
	<circle class="st8" cx="9.8" cy="326.8" r="2.1"/>
	<path class="st8" d="M8.2,328.1c0,0-2,0.6-1,2.5c0.3,0.5,4.8,0.5,5.1,0c0.4-0.6,0.7-1.7-0.9-2.5"/>
	<polygon class="st7" points="10.8,349.6 8.2,349.6 8.2,347.8 10.8,347.8 	"/>
	<path class="st8" d="M9.1,345.9H7.7c-0.6,0-1.1,0.5-1.1,1.1v3.3c0,0.6,0.5,1.1,1.1,1.1h1.4"/>
	<line class="st9" x1="6.2" y1="177.1" x2="13.3" y2="177.1"/>
	<polygon class="st10" points="14.2,177 12.7,175.6 12.7,178.5 	"/>
	<line class="st9" x1="14.2" y1="180" x2="7.1" y2="180"/>
	<polygon class="st10" points="6.2,180 7.8,178.5 7.8,181.4 	"/>
	<polygon class="st11" points="28.8,295.5 23.5,292.4 23.5,298.7 	"/>
	<g>
		<circle class="st12" cx="26.2" cy="311.6" r="2.9"/>
		<rect x="24.2" y="311.2" class="st0" width="3.9" height="0.8"/>
		
			<rect x="24.2" y="311.2" transform="matrix(-1.836970e-16 1 -1 -1.836970e-16 337.7526 285.3776)" class="st0" width="3.9" height="0.8"/>
	</g>
	<g>
		<g>
			<g>
				<path d="M28.6,278.5c0,0-1.9-2-1.9-2h-3v6h4.9C28.6,282.5,28.6,278.7,28.6,278.5z M28.3,278.7h-1.9v-1.9L28.3,278.7z
					 M28.3,282.2C28.3,282.2,28.3,282.2,28.3,282.2l-4.3,0v-5.4h2.2v2.2l2.1,0L28.3,282.2L28.3,282.2z"/>
			</g>
		</g>
		<g>
			<g>
				<path d="M27.7,279.5h-3v0.5h3L27.7,279.5z"/>
			</g>
		</g>
		<g>
			<g>
				<path d="M27.7,280.5h-3v0.5h3V280.5z"/>
			</g>
		</g>
	</g>
	<polygon class="st7" points="13.2,348.7 10.5,346.3 10.5,351 	"/>
	<rect x="443.9" y="332.6" class="st13" width="83.6" height="14.9"/>
	<rect x="443.9" y="309.1" class="st14" width="279.5" height="14.9"/>
	<rect x="723.5" y="309.1" class="st13" width="22.2" height="14.9"/>
	<path class="st15" d="M471.9,278.4h-27.1c-1.1,0-2-0.9-2-2v-14.7c0-1.1,0.9-2,2-2h27.1c1.1,0,2,0.9,2,2v14.7
		C473.9,277.5,473,278.4,471.9,278.4z"/>
	<path class="st16" d="M521.5,250h-76.7c-1.1,0-2-0.9-2-2v-14.7c0-1.1,0.9-2,2-2h76.7c1.1,0,2,0.9,2,2v14.7
		C523.4,249.1,522.6,250,521.5,250z"/>
	<polygon class="st11" points="520,237.6 518.5,240.1 521.5,240.1 	"/>
	<polygon class="st11" points="520,243.8 521.5,241.3 518.5,241.3 	"/>
	<polygon class="st11" points="470.4,266.1 468.9,268.7 471.9,268.7 	"/>
	<polygon class="st11" points="470.4,271.9 471.9,269.4 468.9,269.4 	"/>
	<g>
		<path class="st7" d="M122.8,160.7l-3,5.2c-0.1,0.2,0,0.5,0.3,0.5h6c0.2,0,0.4-0.3,0.3-0.5l-3-5.2
			C123.2,160.4,122.9,160.4,122.8,160.7z"/>
		<line class="st2" x1="123" y1="161.9" x2="123" y2="164.9"/>
		<line class="st2" x1="123" y1="165.2" x2="123" y2="165.9"/>
	</g>
	<rect x="-2.6" y="97.6" class="st12" width="775.3" height="25.6"/>
	<rect x="120.7" y="181.4" class="st17" width="631.3" height="282.9"/>
	<line class="st17" x1="126.7" y1="216" x2="745.7" y2="216"/>
</g>
<g id="Layer_1">
	<text transform="matrix(0.897 0 0 1 126.667 241.2756)" class="st18 st19">Select Destination</text>
	<text transform="matrix(0.8977 0 0 1 126.667 269.9756)" class="st18 st19">Select Currency</text>
	<text transform="matrix(0.886 0 0 1 126.667 298.9658)" class="st18 st19">Available BTC</text>
	<text transform="matrix(0.8972 0 0 1 126.667 319.4756)" class="st18 st19">Bitcoin To Transfer</text>
	<text transform="matrix(0.907 0 0 1 126.667 342.4756)" class="st18 st19">Value in USD</text>
	<text transform="matrix(0.9153 0 0 1 126.667 365.4756)" class="st18 st19">Transfer Fee</text>
	<text transform="matrix(1.0064 0 0 1 126.667 386.4756)" class="st18 st19">Total</text>
	<text transform="matrix(0.952 0 0 1 447.167 243.1357)" class="st18 st19">AXS Silver (..2343)</text>
	<text transform="matrix(1.07 0 0 1 447.1671 271.469)" class="st18 st19">BTC</text>
	<text transform="matrix(0.9029 0 0 1 442.834 295.1357)" class="st18 st19">0.00532</text>
	<text transform="matrix(1.07 0 0 1 449.1671 319.4753)" class="st18 st19">Amount</text>
	<text transform="matrix(0.9133 0 0 1 449.1675 342.4756)" class="st20 st18 st19">$7253.10</text>
	<text transform="matrix(0.9188 0 0 1 442.8335 361.8091)" class="st20 st18 st19">$11.50</text>
	<text transform="matrix(0.957 0 0 1 442.8338 386.4757)" class="st18 st19">$7264.60</text>
	<text transform="matrix(0.9237 0 0 1 126.6675 449.8545)" class="st18 st21">*Load requests are processed from Monday to Friday - 9AM to 5PM CT</text>
	<text transform="matrix(1 0 0 1 126.3618 204.7251)" class="st12 st18 st22">ADD FUNDS</text>
	<text transform="matrix(1 0 0 1 129.167 165.9589)" class="st23 st24 st25">Please Note: By using CryptoCharge you agree to be legally bound by our Terms Of Service and all terms in corpor</text>
	<text transform="matrix(0.9664 0 0 1 422.668 419.8091)" class="st0 st24 st19">Add Funds</text>
	<text transform="matrix(1.0019 0 0 1 131.667 137.1447)" class="st11 st18 st26">Home /   Add Funds</text>
	<text transform="matrix(1.0019 0 0 1 20.167 159.4591)" class="st11 st24 st26">BUY / SELL</text>
	<text transform="matrix(1.0019 0 0 1 20.167 179.9591)" class="st11 st24 st26">EXCHANGE COINS</text>
	<text transform="matrix(1.0019 0 0 1 20.167 199.9591)" class="st11 st24 st26">MY WALLET</text>
	<text transform="matrix(1.0019 0 0 1 20.167 221.9591)" class="st11 st24 st26">BUY BITCOIN</text>
	<text transform="matrix(1.0019 0 0 1 20.167 243.1357)" class="st11 st24 st26">GIFT CARD TOKENS</text>
	<text transform="matrix(1 0 0 1 20.167 262.589)" class="st12 st24 st26">DEBIT CARDS</text>
	<text transform="matrix(1.0019 0 0 1 33.167 281.4689)" class="st11 st24 st26">APPLY FOR CARD</text>
	<text transform="matrix(1.0019 0 0 1 33.167 297.956)" class="st11 st24 st26">ACTIVATE CARD</text>
	<text transform="matrix(1.0019 0 0 1 33.167 313.338)" class="st12 st24 st26">ADD FUNDS</text>
	<text transform="matrix(1.0019 0 0 1 20.167 330.838)" class="st11 st24 st26">MY PROFILE</text>
	<text transform="matrix(1.0019 0 0 1 20.167 351.3092)" class="st11 st24 st26">LOGOUT</text>
	<text transform="matrix(1.0019 0 0 1 6.167 137.1448)" class="st11 st24 st26">Jose Valerin</text>
	<text transform="matrix(0.9133 0 0 1 728.6176 319.1754)" class="st20 st18 st19">BTC</text>
	<text transform="matrix(1.0565 0 0 1 4.7666 116.0222)" class="st0 st18 st27">CRYPTOCHARGE</text>
</g>
<g id="Layer_2">
</g>
</svg>
