<?xml version="1.0" encoding="utf-8"?>
<!-- Generator: Adobe Illustrator 22.0.1, SVG Export Plug-In . SVG Version: 6.00 Build 0)  -->
<svg version="1.1" id="Layer_1" xmlns="http://www.w3.org/2000/svg" xmlns:xlink="http://www.w3.org/1999/xlink" x="0px" y="0px"
	 viewBox="0 0 120 120" style="enable-background:new 0 0 120 120;" xml:space="preserve">
<style type="text/css">
	.st0{fill:#29ABE2;}
	.st1{fill:none;stroke:#4468B0;stroke-width:0.9663;stroke-miterlimit:10;}
</style>
<rect x="162.8" class="st0" width="110.3" height="110.3"/>
<g>
	<path class="st1" d="M14.9,20.6h85.6c9.3,0,14.1,3.2,14.1,10.5c0,11-11.9,10.5-16.8,10.5L95,33H23.5L21,41.6c0,0-15.9,1.3-15.9-9.9
		S14.9,20.6,14.9,20.6z"/>
	<path class="st1" d="M21,41.6L6.1,90.8c-1,4.1,1.5,8.6,4.1,8.6h98c5.3,0.4,6.1-6.1,5.2-9L95,33"/>
	<line class="st1" x1="69.2" y1="32.9" x2="70.9" y2="99.4"/>
	<line class="st1" x1="81" y1="32.9" x2="93.8" y2="99.4"/>
</g>
</svg>
