<?xml version="1.0" encoding="utf-8"?>
<!-- Generator: Adobe Illustrator 22.0.1, SVG Export Plug-In . SVG Version: 6.00 Build 0)  -->
<svg version="1.1" id="Layer_1" xmlns="http://www.w3.org/2000/svg" xmlns:xlink="http://www.w3.org/1999/xlink" x="0px" y="0px"
	 viewBox="0 0 934 1704" style="enable-background:new 0 0 934 1704;" xml:space="preserve">
<style type="text/css">
	.st0{fill:#FFFFFF;}
	.st1{fill:#E0E8F8;}
	.st2{fill:#4468B0;}
	.st3{font-family:'OpenSans-Regular';}
	.st4{font-size:24px;}
	.st5{font-family:'OpenSans-Light';}
	.st6{font-size:48px;}
	.st7{letter-spacing:1;}
	.st8{fill:#868686;}
	.st9{font-size:18px;}
	.st10{fill:#F5F5F5;}
	.st11{fill:none;stroke:#000000;}
	.st12{fill:none;stroke:#000000;stroke-linecap:round;stroke-linejoin:round;}
	.st13{fill:none;stroke:#979797;}
	.st14{fill:none;stroke:#000000;stroke-width:0.5;stroke-linecap:square;}
	.st15{fill:#C7C7C7;}
	.st16{fill:#D8D8D8;}
	.st17{fill:none;stroke:#000000;stroke-width:0.5;}
	.st18{font-family:'OpenSans-Bold';}
	.st19{font-size:36px;}
	.st20{fill:none;stroke:#979797;stroke-linecap:square;}
</style>
<title>AXS Debit Mobile - Send Funds</title>
<desc>Created with Sketch.</desc>
<g id="Page-1">
	<path id="Rectangle" class="st0" d="M115,419h734v1134c0,37.6-30.4,68-68,68H183c-37.6,0-68-30.4-68-68V419z"/>
	<g id="AXS-Debit-Mobile---Send-Funds">
		<g id="Header" transform="translate(121.000000, 55.000000)">
			<g id="Header-BG">
				<path id="Rectangle-7" class="st1" d="M0,308.8h728v150.8c-62.6-48.8-153-73.1-271.2-73.1c-71.9,0-155.6,53.7-245.5,73.1
					C167.5,469,97.1,463.7,0,443.6V308.8z"/>
				<path id="Rectangle-6" class="st2" d="M89,0h550c49.2,0,89,39.8,89,89v304.6c-92,53-163.7,76.9-215,71.7
					c-104.1-10.5-201.4-82.6-304-82.6c-63.4,0-133,27.5-208.9,82.6V89C0,39.8,39.8,0,89,0z"/>
			</g>
			<g id="Hamburger" transform="translate(38.826667, 100.398374)">
				<g id="Layer_1_1_">
					<g id="Group">
						<path id="Shape" class="st0" d="M1.3,3.2h38.2c0.7,0,1.3-0.7,1.3-1.6S40.2,0,39.5,0H1.3C0.6,0,0,0.7,0,1.6S0.6,3.2,1.3,3.2z"
							/>
						<path id="Shape_1_" class="st0" d="M39.5,14.5H1.3c-0.7,0-1.3,0.7-1.3,1.6c0,0.9,0.6,1.6,1.3,1.6h38.2c0.7,0,1.3-0.7,1.3-1.6
							C40.8,15.2,40.2,14.5,39.5,14.5z"/>
						<path id="Shape_2_" class="st0" d="M39.5,29H1.3C0.6,29,0,29.7,0,30.6c0,0.9,0.6,1.6,1.3,1.6h38.2c0.7,0,1.3-0.7,1.3-1.6
							C40.8,29.7,40.2,29,39.5,29z"/>
					</g>
				</g>
			</g>
			<text transform="matrix(1 0 0 1 287.8776 123)" class="st0 st3 st4">SEND FUNDS</text>
			<text transform="matrix(1 0 0 1 415.4453 226.187)" class="st0 st3 st4">Balance</text>
			<text transform="matrix(1 0 0 1 415 284)" class="st0 st5 st6 st7">$247.56</text>
		</g>
		<g id="Navigation" transform="translate(165.000000, 1514.000000)">
			<g id="Home" transform="translate(10.357333, 0.300000)">
				<g id="svg2">
					<g id="layer1" transform="translate(0.000000, 0.143675)">
						<path id="path4981" class="st8" d="M24.2,0.2L0.2,23.6l2.3,2.2l2.1-2.1v26.4H21V34.3h6.6v15.9h16.4V23.8l2.6,2.5h0.7v-3.2h0.7
							L24.2,0.2z M24.3,4.7l16.4,15.9V47h-9.8V31.1H17.7V47H7.9V20.6L24.3,4.7z"/>
					</g>
				</g>
			</g>
			<text transform="matrix(1 0 0 1 9.1976 73.5416)" class="st8 st3 st9">Home</text>
			<text transform="matrix(1 0 0 1 195.2088 73.5416)" class="st8 st3 st9">History</text>
			<text transform="matrix(1 0 0 1 388.4827 73.5416)" class="st8 st3 st9">Logout</text>
			<text transform="matrix(1 0 0 1 581.8793 73.5416)" class="st8 st3 st9">Profile</text>
			<g id="Book" transform="translate(202.549333, 7.833333)">
				<g id="Layer_1_2_">
					<path id="Shape_3_" class="st8" d="M35.8,0c-5.2,0-10,1.7-11.6,5.5C22.6,1.7,17.9,0,12.7,0C5.7,0,0,3.2,0,9.7v34.7h2.8
						c1.6-3.2,5.6-5.1,9.9-5.1c5.1,0,9.3,3.4,10.3,7.8h2.5c1-4.5,5.2-7.8,10.3-7.8c4.3,0,7.7,1.4,9.9,5.1h2.8V9.7
						C48.5,3.2,42.8,0,35.8,0z M23.3,42.5c-2.3-3.2-6.2-5.3-10.6-5.3c-4.4,0-8.2,1.2-10.6,4.4L2,41.7V9.4C2.4,4.3,7.1,2,12.7,2
						c5.7,0,10.4,2.3,10.5,7.6c0,0.1,0,0.2,0,0.3l0,1.6V42.5z M46.5,10.3v31.4c-2.3-3.2-6.3-4.4-10.7-4.4c-4.4,0-8.3,2.1-10.6,5.3
						V9.8C25.3,4.4,30,2,35.8,2c5.6,0,10.3,1.4,10.7,6.5V10.3z"/>
				</g>
			</g>
			
				<g id="Power_x2C_-Off_x2C_-Shutdown_x2C_-Switch_x2C_-Deactive_x2C_-Logout_x2C_-Offline" transform="translate(392.800000, 7.833333)">
				<g id="svg2_1_">
					<g id="layer1_1_" transform="translate(0.000000, 0.299073)">
						<path id="path4406" class="st8" d="M24.3,1.1c-0.4,0-0.8,0.2-1.1,0.4c-0.3,0.3-0.5,0.7-0.5,1v11.7c0,0.5,0.3,1,0.8,1.3
							c0.5,0.3,1.1,0.3,1.6,0c0.5-0.3,0.8-0.8,0.8-1.3V2.5c0-0.4-0.2-0.8-0.5-1.1C25.1,1.2,24.7,1.1,24.3,1.1z M17.9,4.9L17.9,4.9
							c-0.1,0-0.3,0-0.4,0.1C6.8,8,0.2,17.7,1.9,27.6C3.6,37.6,13.1,45,24.2,45c11.1,0,20.7-7.4,22.4-17.3
							c1.7-10-4.9-19.6-15.5-22.7c-0.9-0.2-1.8,0.2-2,0.9c-0.3,0.8,0.2,1.6,1,1.8c9.1,2.6,14.7,10.9,13.3,19.4
							c-1.5,8.6-9.6,14.9-19.2,14.8c-9.6,0-17.7-6.3-19.2-14.9C3.6,18.6,9.3,10.4,18.4,7.8c0.8-0.2,1.3-0.9,1.1-1.7
							S18.7,4.9,17.9,4.9z"/>
					</g>
				</g>
			</g>
			<g id="User" transform="translate(583.050667, 7.833333)">
				<g id="Layer_1_3_">
					<path id="Shape_4_" class="st8" d="M24.2,25.4c7.1,0,12.8-5.7,12.8-12.6S31.3,0,24.2,0S11.4,5.7,11.4,12.6S17.1,25.4,24.2,25.4
						z M24.2,3.3c5.2,0,9.4,4.2,9.4,9.3S29.4,22,24.2,22s-9.4-4.1-9.4-9.2S19,3.3,24.2,3.3z"/>
					<path id="Shape_5_" class="st8" d="M2,45.2h44.6c0.9,0,1.7-0.8,1.7-1.7c0-8.8-7.2-15.9-16.1-15.9H16.4
						c-8.9,0-16.1,7.2-16.1,15.9C0.3,44.4,1.1,45.2,2,45.2z M16.4,30.9h15.8c6.5,0,11.7,4.7,12.6,10.9H3.8
						C4.6,35.6,9.9,30.9,16.4,30.9z"/>
				</g>
			</g>
		</g>
		<g id="Currency-Selector" transform="translate(160.000000, 557.511263)">
			<text transform="matrix(1 0 0 1 0 26.4691)" class="st3 st4">Currency</text>
			<g id="Currency-Droplist" transform="translate(0.000000, 52.178572)">
				<g id="Rectangle-4">
					<g>
						<path id="path-1" class="st10" d="M4,0h152.8c2.2,0,4,1.8,4,4v56.3c0,2.2-1.8,4-4,4H4c-2.2,0-4-1.8-4-4V4C0,1.8,1.8,0,4,0z"/>
					</g>
					<path class="st11" d="M4.5,0.5h151.8c2.2,0,4,1.8,4,4v55.3c0,2.2-1.8,4-4,4H4.5c-2.2,0-4-1.8-4-4V4.5C0.5,2.3,2.3,0.5,4.5,0.5z
						"/>
				</g>
				<text transform="matrix(1 0 0 1 28 40)" class="st3 st4">BTC</text>
				<g id="Dropdown" transform="translate(114.319109, 28.372253)">
					<g id="Layer_1_4_">
						<polyline id="Shape_6_" class="st12" points="18.6,0.2 9.7,9.5 0.7,0.2 						"/>
					</g>
				</g>
			</g>
		</g>
		<g id="Wallet-Selector" transform="translate(368.000000, 557.511263)">
			<text transform="matrix(1 0 0 1 0 26.4691)" class="st3 st4">From</text>
			<g id="Wallet-Droplist" transform="translate(0.000000, 52.178572)">
				<g id="Rectangle-4_1_">
					<g>
						<path id="path-2" class="st10" d="M4,0h429.2c2.2,0,4,1.8,4,4v56.3c0,2.2-1.8,4-4,4H4c-2.2,0-4-1.8-4-4V4C0,1.8,1.8,0,4,0z"/>
					</g>
					<path class="st11" d="M4.5,0.5h428.2c2.2,0,4,1.8,4,4v55.3c0,2.2-1.8,4-4,4H4.5c-2.2,0-4-1.8-4-4V4.5C0.5,2.3,2.3,0.5,4.5,0.5z
						"/>
				</g>
				<text transform="matrix(1 0 0 1 23 39)" class="st3 st4">Select Bitcoin Wallet</text>
				<g id="Dropdown_1_" transform="translate(388.589756, 28.372253)">
					<g id="Layer_1_5_">
						<polyline id="Shape_7_" class="st12" points="18.7,0.2 9.7,9.5 0.7,0.2 						"/>
					</g>
				</g>
			</g>
		</g>
		<text transform="matrix(1 0 0 1 160 1281)" class="st3 st4">Transaction Fee: $11.50</text>
		<g id="Description-Text-Box" transform="translate(160.000000, 983.000000)">
			<text transform="matrix(1 0 0 1 0 15.5432)" class="st3 st4">Description</text>
			<rect x="0.5" y="43.8" class="st13" width="645" height="211.7"/>
		</g>
		<g id="Amount-Text-Field" transform="translate(160.000000, 842.000000)">
			<text transform="matrix(1 0 0 1 0 26.4245)" class="st3 st4">Amount</text>
			<path id="Line-Copy-4" class="st14" d="M2.9,100.2h508.8"/>
			<text transform="matrix(1 0 0 1 2 75)" class="st15 st3 st4">Enter Amount</text>
			<g id="Currency-Indicator-_x28_disabled-box_x29_" transform="translate(508.670213, 36.962264)">
				<g id="Rectangle-10-Copy">
					<g>
						<rect id="path-3" x="0" y="0" class="st16" width="135.9" height="64.2"/>
					</g>
					<rect x="0.3" y="0.2" class="st17" width="135.4" height="63.7"/>
				</g>
				<text transform="matrix(1 0 0 1 42.7128 38.5189)" class="st3 st4">BTC</text>
			</g>
		</g>
		<g id="Send-Address-Text-Field" transform="translate(160.000000, 712.985396)">
			<text transform="matrix(1 0 0 1 0 26.4492)" class="st3 st4">To:</text>
			<path id="Line-Copy-3" class="st14" d="M2.9,100.3H646"/>
			<text transform="matrix(1 0 0 1 2 77)" class="st15 st3 st4">Enter or scan destination</text>
			
				<image style="overflow:visible;enable-background:new    ;" width="600" height="600" id="QR-Code-Scanner-Btn" xlink:href="8ED5E71506B3C466.png"  transform="matrix(0.1291 0 0 0.1291 566.4503 12.4469)">
			</image>
		</g>
		<g id="Send-Button" transform="translate(317.000000, 1352.000000)">
			<path id="Rectangle-8" class="st2" d="M8,0h323c4.4,0,8,3.6,8,8v76c0,4.4-3.6,8-8,8H8c-4.4,0-8-3.6-8-8V8C0,3.6,3.6,0,8,0z"/>
			<text transform="matrix(1 0 0 1 123.5856 56)" class="st0 st18 st19">Send</text>
		</g>
		<path id="Line" class="st20" d="M120.5,1484.5h733.2"/>
		
			<image style="overflow:visible;enable-background:new    ;" width="805" height="1618" id="iphone-frem" xlink:href="8ED5E71506B3C461.png"  transform="matrix(0.9901 0 0 0.9901 85 43.0397)">
		</image>
		
			<image style="overflow:visible;enable-background:new    ;" width="1084" height="708" id="AXS-Gold-Card" xlink:href="8ED5E71506B3C460.png"  transform="matrix(0.2444 0 0 0.2444 210.0621 234)">
		</image>
	</g>
</g>
</svg>
