<?xml version="1.0" encoding="utf-8"?>
<!-- Generator: Adobe Illustrator 22.0.1, SVG Export Plug-In . SVG Version: 6.00 Build 0)  -->
<svg version="1.1" id="Layer_1" xmlns="http://www.w3.org/2000/svg" xmlns:xlink="http://www.w3.org/1999/xlink" x="0px" y="0px"
	 viewBox="0 0 394.8 812" style="enable-background:new 0 0 394.8 812;" xml:space="preserve">
<style type="text/css">
	.st0{fill:#FFFFFF;}
	.st1{fill:none;stroke:#979797;stroke-width:0.5129;}
	.st2{fill:#868686;}
	.st3{font-family:'OpenSans-Regular';}
	.st4{font-size:12px;}
	.st5{fill:#E0E8F8;}
	.st6{fill:#4468B0;}
	.st7{font-size:14px;}
	.st8{font-family:'OpenSans-Light';}
	.st9{font-size:48px;}
	.st10{letter-spacing:1;}
	.st11{fill:#4468B0;stroke:#E0E8F8;stroke-width:7.1806;}
	.st12{fill:none;stroke:#FFFFFF;stroke-width:1.0258;}
</style>
<rect x="1.1" class="st0" width="393.7" height="812"/>
<title>CryptoCharge Mobile Home</title>
<desc>Created with Sketch.</desc>
<g id="Page-1">
	<g id="CryptoCharge-Mobile-Home">
		<line id="Rectangle-5" class="st1" x1="0.5" y1="752.2" x2="394.5" y2="752.2"/>
		<g id="Home" transform="translate(28.000000, 758.000000)">
			<g id="svg2">
				<g id="layer1" transform="translate(0.000000, 0.076287)">
					<path id="path4981" class="st2" d="M12.9,0.1L-0.2,12.5l1.3,1.2l1.2-1.1v14h8.9v-8.4h3.6v8.4h8.9v-14l1.4,1.3h0.4v-1.7h0.4
						L12.9,0.1z M12.9,2.5l8.9,8.5v14h-5.3v-8.4H9.4V25H4V11L12.9,2.5z"/>
				</g>
			</g>
		</g>
		<text transform="matrix(1.0523 0 0 1 22.8789 799)" class="st2 st3 st4">Home</text>
		<text transform="matrix(1.0523 0 0 1 122.8726 799)" class="st2 st3 st4">History</text>
		<text transform="matrix(1.0523 0 0 1 227.8057 799)" class="st2 st3 st4">Logout</text>
		<text transform="matrix(1.0523 0 0 1 332.1807 799)" class="st2 st3 st4">Profile</text>
		<g id="Book" transform="translate(126.000000, 762.000000)">
			<g id="Layer_1_1_">
				<path id="Shape" class="st2" d="M24.3,0c-2.8,0-5.4,0.9-6.3,2.9c-0.9-2-3.5-2.9-6.3-2.9C7.9,0,4.8,1.7,4.8,5.1v18.4h1.5
					c0.9-1.7,3-2.7,5.4-2.7c2.8,0,5.1,1.8,5.6,4.2h1.4c0.5-2.4,2.8-4.2,5.6-4.2c2.3,0,4.2,0.8,5.4,2.7h1.5V5.1
					C31.1,1.7,28.1,0,24.3,0z M17.4,22.6c-1.2-1.7-3.3-2.8-5.7-2.8S7.3,20.5,6,22.1H5.9V5c0.2-2.7,2.7-4,5.8-4s5.6,1.2,5.7,4v0.1V6
					C17.4,6,17.4,22.6,17.4,22.6z M30,5.5v16.7c-1.2-1.7-3.4-2.3-5.8-2.3s-4.5,1.1-5.7,2.8V5.2c0-2.9,2.6-4.2,5.7-4.2
					c3,0,5.6,0.7,5.8,3.5V5.5z"/>
			</g>
		</g>
		
			<g id="Power_x2C_-Off_x2C_-Shutdown_x2C_-Switch_x2C_-Deactive_x2C_-Logout_x2C_-Offline" transform="translate(225.000000, 762.000000)">
			<g id="svg2_1_">
				<g id="layer1_1_" transform="translate(0.000000, 0.158800)">
					<path id="path4406" class="st2" d="M23.2,0.6c-0.2,0-0.5,0.1-0.6,0.2c-0.2,0.1-0.3,0.3-0.2,0.6v6.2c0,0.3,0.2,0.5,0.4,0.7
						c0.3,0.1,0.6,0.1,0.9,0s0.4-0.4,0.4-0.7V1.4c0-0.2-0.1-0.4-0.3-0.6S23.4,0.6,23.2,0.6z M19.7,2.6L19.7,2.6c-0.1,0-0.2,0-0.2,0
						c-5.8,1.6-9.3,6.7-8.4,12c0.9,5.3,6.1,9.2,12.1,9.2s11.2-3.9,12.1-9.2s-2.6-10.4-8.4-12c-0.5-0.1-1,0.1-1.1,0.5s0.1,0.8,0.6,1
						c4.9,1.4,8,5.8,7.2,10.3s-5.2,7.9-10.4,7.9s-9.6-3.4-10.4-7.9C12,9.9,15,5.5,20,4.1c0.4-0.1,0.7-0.5,0.6-0.9
						C20.5,2.9,20.1,2.6,19.7,2.6z"/>
				</g>
			</g>
		</g>
		<g id="User" transform="translate(323.000000, 762.000000)">
			<g id="Layer_1_2_">
				<path id="Shape_1_" class="st2" d="M28.3,13.5c3.9,0,6.9-3,6.9-6.7S32.1,0,28.3,0s-6.9,3-6.9,6.7S24.4,13.5,28.3,13.5z
					 M28.3,1.8c2.8,0,5.1,2.2,5.1,4.9s-2.3,4.9-5.1,4.9s-5.1-2.2-5.1-4.9S25.4,1.8,28.3,1.8z"/>
				<path id="Shape_2_" class="st2" d="M16.2,24h24.2c0.5,0,0.9-0.4,0.9-0.9c0-4.6-3.9-8.4-8.7-8.4H24c-4.8,0-8.7,3.8-8.7,8.4
					C15.3,23.6,15.7,24,16.2,24z M24,16.4h8.5c3.5,0,6.4,2.5,6.8,5.8H17.2C17.7,18.9,20.5,16.4,24,16.4z"/>
			</g>
		</g>
		<path id="Rectangle-7" class="st5" d="M0.2,196h394.6v46.6c-33.9-15.1-82.9-22.6-147-22.6c-39,0-84.4,16.6-133.1,22.6
			c-23.7,2.9-61.9,1.3-114.5-4.9L0.2,196L0.2,196z"/>
		<path id="Rectangle-6" class="st6" d="M0.2,0h394.6v210.3c-49.9,28.3-88.7,41.1-116.5,38.3c-56.5-5.6-109.2-44.1-164.8-44.1
			c-34.4,0-72.1,14.7-113.3,44.1L0.2,0L0.2,0z"/>
		<g id="Hamburger" transform="translate(20.000000, 32.000000)">
			<g id="Layer_1_3_">
				<g id="Group">
					<path id="Shape_3_" class="st0" d="M1.9,1.7h20.7c0.4,0,0.7-0.4,0.7-0.9S23,0,22.6,0H1.9C1.5,0,1.2,0.4,1.2,0.9
						S1.5,1.7,1.9,1.7z"/>
					<path id="Shape_4_" class="st0" d="M22.6,7.7H1.9C1.5,7.7,1.2,8,1.2,8.5s0.3,0.9,0.7,0.9h20.7c0.4,0,0.7-0.4,0.7-0.9
						S23,7.7,22.6,7.7z"/>
					<path id="Shape_5_" class="st0" d="M22.6,15.3H1.9c-0.4,0-0.7,0.4-0.7,0.8c0,0.5,0.3,0.9,0.7,0.9h20.7c0.4,0,0.7-0.4,0.7-0.9
						C23.3,15.7,23,15.3,22.6,15.3z"/>
				</g>
			</g>
		</g>
		<text transform="matrix(1.0523 0 0 1 149.3965 47)" class="st0 st3 st7">MY BALANCE</text>
		<text transform="matrix(1.0523 0 0 1 100.5776 137)" class="st0 st8 st9 st10">$247.56</text>
		<ellipse id="Oval-2" class="st11" cx="77.5" cy="327.5" rx="34.2" ry="32.5"/>
		<text transform="matrix(1.0523 0 0 1 39.4243 386)" class="st3 st7">Send Cash</text>
		<text transform="matrix(1.0523 0 0 1 109.7617 386)" class="st3 st7"> </text>
		<text transform="matrix(1.0523 0 0 1 24.6685 513)" class="st3 st7">Request Cash</text>
		<text transform="matrix(1.0523 0 0 1 154.1689 386)" class="st3 st7">Redeem Cash</text>
		<text transform="matrix(1.0523 0 0 1 248.6123 386)" class="st3 st7"> </text>
		<text transform="matrix(1.0523 0 0 1 155.4023 513)" class="st3 st7">Transactions</text>
		<text transform="matrix(1.0523 0 0 1 292.8213 386)" class="st3 st7">Load Cash</text>
		<text transform="matrix(1.0523 0 0 1 362.5039 386)" class="st3 st7"> </text>
		<text transform="matrix(1.0523 0 0 1 300.1924 513)" class="st3 st7">Activate</text>
		<ellipse id="Oval-2-Copy-3" class="st11" cx="77.5" cy="454.5" rx="34.2" ry="32.5"/>
		<ellipse id="Oval-2-Copy" class="st11" cx="203.8" cy="327.5" rx="34.2" ry="32.5"/>
		<ellipse id="Oval-2-Copy-4" class="st11" cx="203.8" cy="454.5" rx="34.2" ry="32.5"/>
		<ellipse id="Oval-2-Copy-2" class="st11" cx="329" cy="328.5" rx="34.2" ry="32.5"/>
		<ellipse id="Oval-2-Copy-5" class="st11" cx="331.1" cy="454.5" rx="34.2" ry="32.5"/>
		<g id="LOCK" transform="translate(303.000000, 441.000000)">
			<path id="Shape_6_" class="st12" d="M37.1,5.3V2.2c0,0-0.7-2.2-3-2.2H21.8c-0.2,0-0.4,0.1-0.6,0.2c-0.6,0.3-1.9,1-2,2
				c0,0.9,0,7.8,0,7.8"/>
			<path id="Shape_7_" class="st12" d="M41.3,11.5c0-0.3-0.3-0.5-0.6-0.5h-24c0,0-0.7,0-0.7,1s0,15.4,0,15.4s0,0.6,0.7,0.6h23.9
				c0.4,0,0.6-0.3,0.6-0.6V11.5H41.3z"/>
			<ellipse id="Oval" class="st12" cx="28.7" cy="17" rx="3.2" ry="3"/>
			<path id="Shape_8_" class="st12" d="M27.6,20v3.5c0,0.1,0,0.2,0.1,0.2c0.2,0.3,0.8,1.3,1,1.3s0.8-1,1-1.3c0-0.1,0.1-0.2,0.1-0.2
				V20c0,0-0.6,0.5-1.1,0.5S27.6,20,27.6,20z"/>
		</g>
		<g id="ARROWS" transform="translate(180.000000, 440.000000)">
			<path id="Shape_9_" class="st12" d="M17,0L9.8,6.3c-0.3,0.3-0.3,0.7,0,1L17,13"/>
			<path id="Shape_10_" class="st12" d="M9.6,7H37"/>
			<path id="Shape_11_" class="st12" d="M30.6,17l7.2,5.6c0.3,0.2,0.3,0.6,0,0.8L30.6,29"/>
			<path id="Shape_12_" class="st12" d="M38,23H10.7"/>
		</g>
		<g id="HANDS" transform="translate(54.000000, 450.000000)">
			<path id="Shape_13_" class="st12" d="M3,3.1C3,3.1,7.6,0,12.2,0S26,0,26.7,0c0,0,4.9-0.3,4.9,3.4c0,0,9.2-1.9,10.5-1.2
				c1.3,0.6,2,1.9,2,3.1s-8.5,1.9-12.5,3.1s-20.4,3.1-28.3,2.5"/>
			<path id="Shape_14_" class="st12" d="M14.6,5c0,0,0,1,5.3,1s11.9-2,12.6-2"/>
		</g>
		<g id="BILLS" transform="translate(58.000000, 313.000000)">
			<rect id="Rectangle-path" x="3.2" class="st12" width="30.5" height="15"/>
			<ellipse id="Oval_1_" class="st12" cx="18.5" cy="7.5" rx="2.6" ry="2.5"/>
			<path id="Shape_15_" class="st12" d="M18,12H8.6c0,0-0.5-1.5-1.1-2S5.3,9,5.3,9V5c0,0,1.6-0.5,2.2-1s1.1-2,1.1-2H18"/>
			<path id="Shape_16_" class="st12" d="M18,2h9.3c0,0,0.5,1.5,1.1,2c0.5,0.5,2.2,1,2.2,1v4c0,0-1.6,0.5-2.2,1c-0.5,0.5-1.1,2-1.1,2
				H18"/>
			<rect id="Rectangle-path_1_" x="3.2" y="20" class="st12" width="2.1" height="5"/>
			<rect id="Rectangle-path_2_" x="9.5" y="20" class="st12" width="2.1" height="5"/>
			<rect id="Rectangle-path_3_" x="15.9" y="20" class="st12" width="2.1" height="5"/>
			<polyline id="Shape_17_" class="st12" points="21.1,21 31.8,21 31.8,18 39,23.5 31.8,29 31.8,25.5 21.4,25.5 21.4,21 			"/>
		</g>
		<g id="ATM" transform="translate(293.000000, 311.000000)">
			<path id="Shape_18_" class="st12" d="M22.4,0h28.2c0.3,0,0.6,0.3,0.6,0.6v10.8c0,0.3-0.3,0.6-0.6,0.6H45V5.7H28V12h-5.6
				c-0.3,0-0.6-0.3-0.6-0.6V0.6C21.8,0.3,22.1,0,22.4,0z"/>
			<path id="Shape_19_" class="st12" d="M26,6h21"/>
			<path id="Shape_20_" class="st12" d="M28.1,12.5v16.9c0,0.3,0.3,0.6,0.6,0.6h15.6c0.3,0,0.6-0.3,0.6-0.6V12.5V6H28.1V12.5"/>
			<path id="Shape_21_" class="st12" d="M36.6,12v13"/>
			<polyline id="Shape_22_" class="st12" points="41.8,14 32.3,14 32.3,18.3 41.8,18.3 41.8,22 32.3,22 			"/>
			<path id="Shape_23_" class="st12" d="M15.5,31l4.3-4.8c0.2-0.2,0.6-0.2,0.8,0L25,31"/>
			<path id="Shape_24_" class="st12" d="M20.8,26v9"/>
		</g>
		<g id="gift" transform="translate(178.000000, 311.000000)">
			<path id="Shape_25_" class="st0" d="M42.1,6h-8.7c0.5-0.6,0.7-1.4,0.7-2.2c0-1-0.4-2-1.2-2.7c-1.6-1.5-4.1-1.5-5.7,0l-1.6,1.5
				L24,1.1c-1.6-1.5-4.1-1.5-5.7,0c-0.8,0.7-1.2,1.7-1.2,2.7c0,0.8,0.3,1.6,0.7,2.2H9.5v7.6h2.9V30h27.5V13.6h2.3V6H42.1z M28.1,1.9
				c1.1-1.1,2.9-1.1,4,0C32.7,2.4,33,3.1,33,3.8s-0.3,1.4-0.8,1.9L31.9,6h-8.1l2.7-2.6L28.1,1.9z M19.2,5.7
				c-0.5-0.5-0.8-1.2-0.8-1.9s0.3-1.4,0.8-1.9c1.1-1.1,2.9-1.1,4,0l1.6,1.5l-2,1.9c-0.1,0.1-0.2,0.2-0.3,0.4l-0.1,0.1l-0.1,0.1h-2.8
				L19.2,5.7z M10.6,12.5V7.1H19h2.7H23h2.5v5.5H12.4h-1.8V12.5z M25.5,13.6v6.5h-12v-6.5H25.5z M13.5,21.3h12v7.6h-12V21.3z
				 M26.7,28.9v-7.6h12v7.6H26.7z M38.7,20.2h-12v-6.5h12V20.2z M41,12.5h-1.1H26.7V7.1h5.7H41V12.5z"/>
		</g>
	</g>
</g>
</svg>
