<?xml version="1.0" encoding="utf-8"?>
<!-- Generator: Adobe Illustrator 22.0.1, SVG Export Plug-In . SVG Version: 6.00 Build 0)  -->
<svg version="1.1" id="Layer_1" xmlns="http://www.w3.org/2000/svg" xmlns:xlink="http://www.w3.org/1999/xlink" x="0px" y="0px"
	 viewBox="0 0 70 70" style="enable-background:new 0 0 70 70;" xml:space="preserve">
<style type="text/css">
	.st0{fill:#FFFFFF;}
	.st1{fill:none;stroke:#6170DF;stroke-width:0.6934;stroke-miterlimit:10;}
</style>
<path class="st0" d="M58.6,65.1H11.4c-3.6,0-6.4-2.9-6.4-6.4V11.4c0-3.6,2.9-6.4,6.4-6.4h47.2c3.6,0,6.4,2.9,6.4,6.4v47.2
	C65.1,62.2,62.2,65.1,58.6,65.1z"/>
<g>
	<path class="st1" d="M12.1,34c0,0,6.9-3.6,12-3.6s6.9,1.8,11.6,2.3c2.4,0.3,6.5,0,7,3.8c0,0,0.1,0.2,0.8,0.1
		c2.5-0.5,5.8-1.4,9.3-2.9c1.2-0.5,4-1,4.7,0.1c0.4,0.6,0.5,2-0.1,2.7c-1,1.1-5.3,2.3-9,4.3c-6.7,1.7-9.2,1.8-11.6,2.6
		c-4.1,1.4-8.9,1.1-17.2-1c-1-0.3-2.1-0.4-3.2-0.5l-4.3-0.2"/>
	<path class="st1" d="M24.2,35.2c0,0,0,1.5,6,1.5s12.4,2.7,12.6,0"/>
</g>
</svg>
