<?xml version="1.0" encoding="utf-8"?>
<!-- Generator: Adobe Illustrator 22.0.1, SVG Export Plug-In . SVG Version: 6.00 Build 0)  -->
<svg version="1.1" id="Layer_1" xmlns="http://www.w3.org/2000/svg" xmlns:xlink="http://www.w3.org/1999/xlink" x="0px" y="0px"
	 viewBox="0 0 70 70" style="enable-background:new 0 0 70 70;" xml:space="preserve">
<style type="text/css">
	.st0{fill:#FFFFFF;}
	.st1{fill:none;stroke:#6170DF;stroke-width:0.5989;stroke-miterlimit:10;}
</style>
<path class="st0" d="M59.2,65.1H11.9c-3.6,0-6.4-2.9-6.4-6.4V11.4c0-3.6,2.9-6.4,6.4-6.4h47.2c3.6,0,6.4,2.9,6.4,6.4v47.2
	C65.6,62.2,62.7,65.1,59.2,65.1z"/>
<g>
	<path class="st1" d="M27.9,15.7l-10.3,8.7c-0.4,0.4-0.4,1,0,1.3l10.3,7.8"/>
	<line class="st1" x1="17.3" y1="25.2" x2="56.3" y2="25.2"/>
	<path class="st1" d="M46.2,37.3l9.4,7.9c0.4,0.3,0.4,0.8,0,1.1l-9.4,7.9"/>
	<line class="st1" x1="55.9" y1="45.8" x2="16.8" y2="45.8"/>
</g>
</svg>
