<?xml version="1.0" encoding="utf-8"?>
<!-- Generator: Adobe Illustrator 22.0.1, SVG Export Plug-In . SVG Version: 6.00 Build 0)  -->
<svg version="1.1" id="Layer_1" xmlns="http://www.w3.org/2000/svg" xmlns:xlink="http://www.w3.org/1999/xlink" x="0px" y="0px"
	 viewBox="0 0 120 120" style="enable-background:new 0 0 120 120;" xml:space="preserve">
<style type="text/css">
	.st0{fill:#29ABE2;}
	.st1{fill:none;stroke:#4468B0;stroke-width:1.2371;stroke-miterlimit:10;}
	.st2{fill:#FFFFFF;stroke:#4468B0;stroke-width:1.2371;stroke-miterlimit:10;}
</style>
<rect x="173.8" y="-15.4" class="st0" width="110.3" height="110.3"/>
<path class="st1" d="M83.5,18.7"/>
<path class="st2" d="M83.5,18.7"/>
<path class="st1" d="M35.3,96.6c0,0,22.3,18.6,24.7,18.6s2.5,0,2.5,0s33.4-17.3,40.8-42.1c7.4-24.7,8.7-47,8.7-47
	c-26,0-49.5-21-49.5-21h-1.2c0,0-30.9,21-49.5,21C11.8,26.1,11.8,76.8,35.3,96.6z"/>
<polygon class="st1" points="32.8,60.7 44,49.6 55.7,61.4 78.6,38.5 89.1,49 55.1,83 "/>
</svg>
